<svg width="27" height="27" viewBox="0 0 27 27" fill="none" xmlns="http://www.w3.org/2000/svg">
<g clip-path="url(#clip0_3_2537)">
<path d="M0.828125 14.38V12.1214H1.95744V10.992H3.08676V9.86273H4.21608V8.73341H5.3454V7.60409H6.47471V6.47477H7.60403V5.34546H8.73335V4.21614H9.86267V3.08682H10.992V1.9575H12.1213V0.828186H13.2506V1.9575H14.3799V3.08682H15.5093V4.21614H14.3799V5.34546H13.2506V6.47477H12.1213V7.60409H10.992V8.73341H9.86267V9.86273H8.73335V10.992H25.6731V15.5093H8.73335V16.6386H9.86267V17.768H10.992V18.8973H12.1213V20.0266H13.2506V21.1559H14.3799V22.2852H15.5093V23.4145H14.3799V24.5439H13.2506V25.6732H12.1213V24.5439H10.992V23.4145H9.86267V22.2852H8.73335V21.1559H7.60403V20.0266H6.47471V18.8973H5.3454V17.768H4.21608V16.6386H3.08676V15.5093H1.95744V14.38H0.828125Z" fill="#0097FF"/>
</g>
<defs>
<clipPath id="clip0_3_2537">
<rect width="26.5013" height="26.5013" fill="white"/>
</clipPath>
</defs>
</svg>
