<svg width="27" height="25" viewBox="0 0 27 25" fill="none" xmlns="http://www.w3.org/2000/svg">
<rect y="2.25848" width="1.69383" height="1.69383" fill="#0097FF"/>
<rect x="1.12915" y="1.12924" width="1.69383" height="1.69383" fill="#0097FF"/>
<rect x="2.25854" width="1.69383" height="1.69383" fill="#0097FF"/>
<rect y="13.5512" width="1.69383" height="1.69383" fill="#0097FF"/>
<rect x="1.12915" y="12.422" width="1.69383" height="1.69383" fill="#0097FF"/>
<rect x="2.25854" y="11.2927" width="1.69383" height="1.69383" fill="#0097FF"/>
<rect y="19.1972" width="1.69383" height="1.69383" fill="#0097FF"/>
<rect x="1.12915" y="18.0679" width="1.69383" height="1.69383" fill="#0097FF"/>
<rect x="2.25854" y="16.9387" width="1.69383" height="1.69383" fill="#0097FF"/>
<rect x="16.9387" y="2.25845" width="1.69383" height="1.69383" fill="#0097FF"/>
<rect x="18.0679" y="1.12921" width="1.69383" height="1.69383" fill="#0097FF"/>
<rect x="19.1973" width="1.69383" height="1.69383" fill="#0097FF"/>
<rect x="22.5845" y="2.25845" width="1.69383" height="1.69383" fill="#0097FF"/>
<rect x="23.7139" y="1.12921" width="1.69383" height="1.69383" fill="#0097FF"/>
<rect x="24.843" width="1.69383" height="1.69383" fill="#0097FF"/>
<rect x="22.5847" y="7.90424" width="1.69383" height="1.69383" fill="#0097FF"/>
<rect x="23.7139" y="6.77502" width="1.69383" height="1.69383" fill="#0097FF"/>
<rect x="24.8433" y="5.64581" width="1.69383" height="1.69383" fill="#0097FF"/>
<rect x="22.5845" y="13.551" width="1.69383" height="1.69383" fill="#0097FF"/>
<rect x="23.7139" y="12.4218" width="1.69383" height="1.69383" fill="#0097FF"/>
<rect x="24.843" y="11.2926" width="1.69383" height="1.69383" fill="#0097FF"/>
<rect x="23.7144" y="18.0679" width="1.69383" height="1.69383" fill="#0097FF"/>
<rect x="24.8435" y="16.9387" width="1.69383" height="1.69383" fill="#0097FF"/>
<rect x="12.4216" y="1.12924" width="1.69383" height="1.69383" fill="#0097FF"/>
<rect x="13.5508" width="1.69383" height="1.69383" fill="#0097FF"/>
<rect x="21.4556" y="14.6801" width="1.69383" height="1.69383" fill="#0097FF"/>
<rect x="21.4556" y="3.38773" width="1.69383" height="1.69383" fill="#0097FF"/>
<rect x="20.3264" y="4.51697" width="1.69383" height="1.69383" fill="#0097FF"/>
<rect x="21.4556" y="9.03394" width="1.69383" height="1.69383" fill="#0097FF"/>
<rect x="3.3877" y="15.8093" width="1.69383" height="1.69383" fill="#0097FF"/>
<rect x="4.51685" y="3.38773" width="1.69383" height="1.69383" fill="#0097FF"/>
<rect x="5.64624" y="2.25848" width="1.69383" height="1.69383" fill="#0097FF"/>
<rect x="6.77539" y="1.12924" width="1.69383" height="1.69383" fill="#0097FF"/>
<rect x="7.90479" width="1.69383" height="1.69383" fill="#0097FF"/>
<rect x="3.3877" y="4.51697" width="1.69383" height="1.69383" fill="#0097FF"/>
<rect x="2.25854" y="5.64618" width="1.69383" height="1.69383" fill="#0097FF"/>
<rect x="1.12915" y="6.77542" width="1.69383" height="1.69383" fill="#0097FF"/>
<rect y="7.90466" width="1.69383" height="1.69383" fill="#0097FF"/>
<path d="M19.1972 9.24988H18.6072V12.2076H19.1972V9.24988Z" fill="#0097FF"/>
<path d="M18.6066 12.2075H18.0127V13.3914H18.6066V12.2075Z" fill="#0097FF"/>
<path d="M18.6066 8.06555H18.0127V9.24941H18.6066V8.06555Z" fill="#0097FF"/>
<path d="M18.0128 13.3918H17.4229V14.5718H18.0128V13.3918Z" fill="#0097FF"/>
<path d="M18.0128 6.88229H17.4229V8.06615H18.0128V6.88229Z" fill="#0097FF"/>
<path d="M17.424 14.5718H16.8296V15.1662H17.424V14.5718Z" fill="#0097FF"/>
<path d="M17.424 6.29233H16.8296V6.88283H17.424V6.29233Z" fill="#0097FF"/>
<path d="M16.8296 15.1651H15.6497V15.7551H16.8296V15.1651Z" fill="#0097FF"/>
<path d="M16.8296 5.70233H15.6497V6.29232H16.8296V5.70233Z" fill="#0097FF"/>
<path d="M15.6489 5.10797H14.4651V5.70184H15.6489V5.10797Z" fill="#0097FF"/>
<path d="M14.4653 4.51797H11.5076V5.10796H14.4653V4.51797Z" fill="#0097FF"/>
<path d="M11.5069 5.10803H10.323V5.7019H11.5069V5.10803Z" fill="#0097FF"/>
<path d="M10.3235 15.1653H9.13965V15.7553H10.3235V15.1653Z" fill="#0097FF"/>
<path d="M10.3235 5.70242H9.13965V6.29241H10.3235V5.70242Z" fill="#0097FF"/>
<path d="M9.1403 14.572H8.5498V15.1664H9.1403V14.572Z" fill="#0097FF"/>
<path d="M9.1403 6.29242H8.5498V6.88292H9.1403V6.29242Z" fill="#0097FF"/>
<path d="M8.54971 13.3921H7.95972V14.5721H8.54971V13.3921Z" fill="#0097FF"/>
<path d="M8.54971 6.88239H7.95972V8.06625H8.54971V6.88239Z" fill="#0097FF"/>
<path d="M7.95911 12.2077H7.36523V13.3916H7.95911V12.2077Z" fill="#0097FF"/>
<path d="M7.95911 8.06567H7.36523V9.24953H7.95911V8.06567Z" fill="#0097FF"/>
<path d="M7.36538 9.25006H6.77539V12.2078H7.36538V9.25006Z" fill="#0097FF"/>
<rect x="10.1631" y="15.8097" width="1.24214" height="1.24214" fill="#0097FF"/>
<rect width="1.24214" height="1.24214" transform="matrix(-1 0 0 1 15.8091 15.8097)" fill="#0097FF"/>
<rect x="9.03369" y="15.8097" width="1.24214" height="1.24214" fill="#0097FF"/>
<rect width="1.24214" height="1.24214" transform="matrix(-1 0 0 1 16.9385 15.8097)" fill="#0097FF"/>
<rect x="7.90454" y="16.939" width="1.24214" height="1.24214" fill="#0097FF"/>
<rect width="1.24214" height="1.24214" transform="matrix(-1 0 0 1 18.0676 16.939)" fill="#0097FF"/>
<rect x="6.77515" y="18.0682" width="1.24214" height="1.24214" fill="#0097FF"/>
<rect width="1.24214" height="1.24214" transform="matrix(-1 0 0 1 19.1968 18.0682)" fill="#0097FF"/>
<rect x="5.646" y="19.1974" width="1.24214" height="1.24214" fill="#0097FF"/>
<rect width="1.24214" height="1.24214" transform="matrix(-1 0 0 1 20.3262 19.1974)" fill="#0097FF"/>
<rect x="5.646" y="20.3267" width="1.24214" height="1.24214" fill="#0097FF"/>
<rect width="1.24214" height="1.24214" transform="matrix(-1 0 0 1 20.3262 20.3267)" fill="#0097FF"/>
<rect x="5.646" y="21.4559" width="1.24214" height="1.24214" fill="#0097FF"/>
<rect width="1.24214" height="1.24214" transform="matrix(-1 0 0 1 20.3262 21.4559)" fill="#0097FF"/>
<rect x="5.646" y="22.5851" width="1.24214" height="1.24214" fill="#0097FF"/>
<rect x="6.77515" y="22.5851" width="1.24214" height="1.24214" fill="#0097FF"/>
<rect x="19.1968" y="22.5851" width="1.24214" height="1.24214" fill="#0097FF"/>
<rect width="1.24214" height="1.24214" transform="matrix(-1 0 0 1 19.1968 22.5851)" fill="#0097FF"/>
<rect x="6.77515" y="23.7596" width="1.24214" height="1.24214" transform="rotate(-2.29321 6.77515 23.7596)" fill="#0097FF"/>
<rect width="1.24214" height="1.24214" transform="matrix(-0.999995 0.00323488 0.00323488 0.999995 19.2146 23.732)" fill="#0097FF"/>
<rect x="7.92651" y="23.7365" width="1.24214" height="1.24214" fill="#0097FF"/>
<rect width="1.24214" height="1.24214" transform="matrix(-1 0 0 1 18.0896 23.7365)" fill="#0097FF"/>
<rect x="9.05566" y="23.7365" width="1.24214" height="1.24214" fill="#0097FF"/>
<rect width="1.24214" height="1.24214" transform="matrix(-1 0 0 1 16.9604 23.7365)" fill="#0097FF"/>
<rect x="11.3142" y="23.7365" width="1.24214" height="1.24214" fill="#0097FF"/>
<rect width="1.24214" height="1.24214" transform="matrix(-1 0 0 1 14.7019 23.7365)" fill="#0097FF"/>
<rect width="1.24214" height="1.24214" transform="matrix(-1 0 0 1 13.5728 23.7365)" fill="#0097FF"/>
<rect x="10.1851" y="23.7365" width="1.24214" height="1.24214" fill="#0097FF"/>
<rect width="1.24214" height="1.24214" transform="matrix(-1 0 0 1 15.8313 23.7365)" fill="#0097FF"/>
</svg>
