<svg width="24" height="24" viewBox="0 0 24 24" fill="none" xmlns="http://www.w3.org/2000/svg">
<path d="M23.9998 5.05707H22.6611V7.57728H23.9998V5.05707Z" fill="#0097FF"/>
<path d="M22.661 3.78867H21.3311V5.05706H22.661V3.78867Z" fill="#0097FF"/>
<path d="M21.3314 2.52853H19.9927V3.78864H21.3314V2.52853Z" fill="#0097FF"/>
<path d="M14.6644 17.6829H17.333V16.4228H18.6629V2.5285H19.9929V1.2601H18.6629V0H17.333V12.6342H14.6644V13.8943H13.3345V16.4228H14.6644V17.6829Z" fill="#0097FF"/>
<path d="M10.6658 11.3658H9.32715V13.8943H10.6658V11.3658Z" fill="#0097FF"/>
<path d="M9.327 10.1057H7.99707V11.3658H9.327V10.1057Z" fill="#0097FF"/>
<path d="M7.99741 8.84552H6.66748V10.1056H7.99741V8.84552Z" fill="#0097FF"/>
<path d="M1.32993 24.0001H3.99854V22.74H5.32847V8.8457H6.66715V7.5773H5.32847V6.3172H3.99854V18.9514H1.32993V20.2115H0V22.74H1.32993V24.0001Z" fill="#0097FF"/>
</svg>
